<svg width="26" height="24" viewBox="0 0 26 24" fill="none" xmlns="http://www.w3.org/2000/svg">
<path d="M25.8398 4.56315C25.6828 4.35206 25.4322 4.22714 25.1658 4.22714H6.39581C6.35945 4.22714 6.32314 4.22931 6.28817 4.23393L5.51569 2.04999C5.43563 1.82413 5.25933 1.64408 5.03275 1.5566L1.13964 0.0566614C0.710577 -0.10809 0.226412 0.0986053 0.0579052 0.5189C-0.110311 0.939423 0.100381 1.41456 0.529212 1.57982L4.06506 2.94212L8.39299 15.1771C8.20197 15.2424 8.04009 15.3862 7.96637 15.5873L6.71502 18.9964C6.63833 19.2054 6.66993 19.4376 6.80044 19.6193C6.93078 19.8009 7.14275 19.9091 7.36909 19.9091H8.0117C7.61347 20.3437 7.36909 20.9161 7.36909 21.5455C7.36909 22.899 8.49197 24 9.87179 24C11.2516 24 12.3745 22.899 12.3745 21.5455C12.3745 20.9161 12.1301 20.3437 11.7319 19.9091H17.1883C16.7899 20.3437 16.5455 20.9161 16.5455 21.5455C16.5455 22.899 17.6681 24 19.0482 24C20.4283 24 21.5509 22.899 21.5509 21.5455C21.5509 20.9161 21.3066 20.3437 20.9084 19.9091H21.69C22.074 19.9091 22.3852 19.6038 22.3852 19.2272C22.3852 18.8507 22.0739 18.5455 21.69 18.5455H8.35825L9.13323 16.4342C9.23331 16.4756 9.34142 16.5 9.45459 16.5H21.6898C22.0526 16.5 22.3736 16.2702 22.4841 15.9317L25.96 5.2952C26.0416 5.04616 25.9968 4.77424 25.8398 4.56315ZM9.87179 22.6363C9.25833 22.6363 8.7595 22.1471 8.7595 21.5455C8.7595 20.9438 9.25833 20.4545 9.87179 20.4545C10.4852 20.4545 10.9841 20.9438 10.9841 21.5455C10.9841 22.1471 10.4852 22.6363 9.87179 22.6363ZM19.0482 22.6363C18.4347 22.6363 17.9358 22.1471 17.9358 21.5455C17.9358 20.9438 18.4347 20.4545 19.0482 20.4545C19.6616 20.4545 20.1605 20.9438 20.1605 21.5455C20.1605 22.1471 19.6616 22.6363 19.0482 22.6363ZM23.421 7.70443H19.1641V5.86352H24.0226L23.421 7.70443ZM22.1952 11.4544H19.1641V9.34076H22.8861L22.1952 11.4544ZM13.6488 11.4544V9.34076H17.4956V11.4544H13.6488ZM17.4956 13.0909V14.8636H13.6488V13.0909H17.4956ZM8.09456 9.34076H11.9804V11.4544H8.8423L8.09456 9.34076ZM13.6488 7.70443V5.86352H17.4956V7.70443H13.6488ZM11.9804 5.86352V7.70443H7.51555L6.86439 5.86352H11.9804ZM9.42125 13.0909H11.9804V14.8636H10.0483L9.42125 13.0909ZM19.1641 14.8637V13.0909H21.6608L21.0816 14.8637H19.1641Z" fill="#300096"/>
</svg>
