<svg width="0" height="0" class="hidden">
  <symbol xmlns="http://www.w3.org/2000/svg" viewBox="0 0 30 34" id="apple">
    <g clip-path="url(#clip0_5_533)">
      <path d="M25.0119 32.64C23.0808 34.4284 20.9501 34.1496 18.9193 33.3064C16.7601 32.4462 14.7862 32.3918 12.5059 33.3064C9.66628 34.476 8.15916 34.136 6.44894 32.64C-3.20663 23.154 -1.78146 8.70399 9.19241 8.15999C11.8539 8.29599 13.7174 9.56419 15.285 9.66959C17.6152 9.21739 19.8456 7.92199 22.3397 8.09199C25.3361 8.32319 27.5772 9.45199 29.0736 11.4818C22.9097 15.0178 24.3706 22.7698 30.0321 24.9458C28.8991 27.7848 27.4454 30.5898 25.0083 32.6638L25.0119 32.64ZM15.0713 8.05799C14.7827 3.84199 18.3634 0.373996 22.4822 0.0339966C23.0487 4.89599 17.8504 8.53399 15.0713 8.05799Z"></path>
    </g>
    <defs>
      <clipPath id="clip0_5_533">
        <rect width="30" height="34"></rect>
      </clipPath>
    </defs>
  </symbol>
</svg>