<svg width="18" height="18" viewBox="0 0 18 18" fill="none" xmlns="http://www.w3.org/2000/svg">
<g clip-path="url(#clip0_2:278)">
<path d="M4.02961 17.6357C3.83158 17.6357 3.63574 17.5743 3.46861 17.4534C3.15727 17.2285 3.01184 16.8406 3.09657 16.4657L4.25456 11.3656L0.327394 7.92143C0.0387204 7.66874 -0.0715577 7.27048 0.0469604 6.90517C0.165479 6.54069 0.487936 6.28195 0.869721 6.24666L6.06667 5.77492L8.1202 0.967316C8.27168 0.614096 8.61666 0.385986 8.99996 0.385986C9.38325 0.385986 9.72823 0.614096 9.87971 0.966492L11.9332 5.77492L17.1294 6.24666C17.512 6.28113 17.8344 6.54 17.953 6.90448C18.0715 7.26965 17.9619 7.66874 17.6724 7.92075L13.746 11.3641L14.904 16.4642C14.9889 16.8393 14.8433 17.227 14.5321 17.4519C14.2223 17.6762 13.8091 17.695 13.4813 17.4985L8.99996 14.8209L4.51934 17.5C4.36786 17.5908 4.19908 17.6357 4.02961 17.6357V17.6357ZM8.99996 13.6674C9.17025 13.6674 9.33889 13.7132 9.49051 13.8031L13.7191 16.3322L12.6262 11.5178C12.5482 11.1743 12.6645 10.8172 12.9293 10.5856L16.6374 7.33269L11.7315 6.88718C11.3798 6.85573 11.0752 6.63449 10.9372 6.30819L8.99996 1.77126L7.06109 6.30887C6.9239 6.63366 6.61943 6.85491 6.2669 6.88649L1.36178 7.332L5.06977 10.5847C5.33537 10.8165 5.45087 11.1743 5.37286 11.5178L4.2801 16.3322L8.50872 13.8031C8.66088 13.7132 8.82966 13.6674 8.99996 13.6674ZM6.02615 5.86872V5.86941V5.86872ZM11.9731 5.86639V5.86721C11.9731 5.86721 11.9731 5.86721 11.9731 5.86639Z" fill="#444444"/>
</g>
<defs>
<clipPath id="clip0_2:278">
<rect width="18" height="18" fill="white" transform="translate(0 -0.000244141)"/>
</clipPath>
</defs>
</svg>
